<svg width="100%" viewBox="0 0 142 76">
    <g class="logo-title">
        <path d="M.25 18.65v3.96h22.3L.25 61.84h30.79v-3.96H7.02l22.34-39.23H.25z" class="z"/>
        <path d="M41.43 28.28v33.56h-3.96V18.65h3.96v2.77c3.28-3.44 7.83-5.38 12.58-5.37 9.17-.41 16.94 6.69 17.36 15.86.02.35.02.69.01 1.04v28.9h-3.96V33.3c.05-3.55-1.39-6.96-3.98-9.39-5.21-5.16-13.6-5.19-18.85-.07a14.987 14.987 0 0 0-3.16 4.44"/>
        <path d="M111.29 22.92c-8.84-6.59-21.34-4.77-27.93 4.07a19.95 19.95 0 0 0 0 23.86l27.93-27.93zM86.05 53.75c3.6 3.35 8.36 5.18 13.28 5.1 5.31.08 10.42-2.03 14.12-5.85.5-.5.97-1.01 1.41-1.54l4.18 1.5c-.78 1.08-1.65 2.1-2.6 3.04-9.46 9.39-24.74 9.34-34.13-.11-9.39-9.46-9.34-24.74.11-34.13 8.64-8.58 22.32-9.38 31.91-1.87.7.59 1.41 1.23 2.11 1.93.27.26.51.53.75.79l-2.99 2.99-28.15 28.15z"/>
        <path d="M128.99.27v18.38h-8.8v3.96h8.8v39.23h3.96V22.61h8.8v-3.96h-8.8V.27h-3.96z"/>
    </g>
    <g class="logo-subtitle">
        <path d="M6.33 67.82v3.4H2.02v-3.4H1.3v7.71h.72v-3.66h4.31v3.66h.72v-7.71h-.72z"/>
        <path d="M13.25 67.82v7.71h4.89v-.65h-4.17v-3h3.74v-.65h-3.74v-2.74h4v-.65l-4.72-.02z"/>
        <path d="M24.53 71.22h1.63c.2 0 .4-.02.6-.07.19-.04.36-.12.52-.23.16-.11.28-.25.37-.42.1-.2.15-.42.14-.64.01-.22-.04-.44-.15-.63-.09-.17-.22-.32-.38-.43-.16-.11-.34-.2-.54-.24-.2-.05-.4-.08-.61-.08h-1.59l.01 2.74zm-.72-3.4h2.22c.28 0 .57.03.84.09.29.06.56.17.81.32.25.16.45.37.6.63.17.31.25.65.23 1 .01.31-.06.62-.19.9-.12.25-.29.46-.51.63-.22.17-.47.29-.74.36-.29.08-.58.12-.88.12h-1.67v3.66h-.72l.01-7.71z"/>
        <path d="M34.86 74.88h1.64c.35.01.69-.04 1.02-.15.22-.08.43-.21.59-.38.13-.14.22-.3.28-.48.04-.15.07-.31.07-.46.01-.25-.05-.5-.17-.73-.1-.2-.25-.36-.42-.49-.18-.13-.38-.22-.59-.28-.22-.06-.44-.09-.67-.09h-1.75v3.06zm0-3.72h1.49c.31.01.61-.04.9-.14.2-.07.39-.19.55-.33.12-.12.21-.26.26-.42.04-.13.06-.27.07-.41.01-.23-.04-.46-.14-.67-.08-.17-.21-.32-.36-.42-.16-.11-.34-.19-.53-.22-.21-.04-.43-.07-.64-.07h-1.59l-.01 2.68zm-.72-3.34h2.22c.3 0 .59.02.88.07.28.04.56.14.8.29.24.15.44.37.58.62.16.32.24.69.22 1.05.01.37-.12.73-.35 1.02-.27.31-.63.51-1.03.58v.02c.24.02.48.08.7.18.2.09.39.23.54.39.16.17.28.37.35.58.09.24.13.49.13.74.02.38-.07.75-.26 1.08-.16.27-.38.49-.64.66-.26.16-.54.27-.84.33-.28.06-.56.09-.84.09h-2.46v-7.7z"/>
        <path d="M50.66 72.58c0 .4-.05.8-.14 1.19-.09.36-.25.7-.47 1-.23.3-.53.54-.87.7-.85.35-1.8.35-2.64 0-.34-.16-.64-.4-.87-.7-.23-.3-.39-.64-.47-1-.1-.39-.14-.79-.14-1.19v-4.76h.72v4.57c0 .3.03.59.08.88.05.31.15.6.3.87s.37.5.63.66c.68.35 1.49.35 2.17 0 .26-.16.48-.39.63-.66.15-.27.25-.57.3-.87.05-.29.07-.59.08-.88v-4.57h.72l-.03 4.76z"/>
        <path d="M57.54 71.22h1.52c.31.01.62-.04.92-.14.21-.07.39-.19.55-.35.12-.13.21-.28.27-.45.09-.28.09-.59 0-.87-.05-.17-.14-.32-.27-.45-.16-.15-.34-.27-.55-.35-.29-.11-.61-.15-.92-.14h-1.52v2.75zm-.72-3.4h2.02c.1 0 .24 0 .41.01.19.01.38.03.57.07.21.04.42.1.62.17.21.08.4.2.57.35a1.85 1.85 0 0 1 .57 1.43c.01.32-.05.63-.19.92-.12.23-.28.42-.48.58-.19.15-.41.26-.64.33-.22.07-.44.12-.66.15l2.24 3.7h-.82l-2.17-3.66h-1.34v3.67h-.71l.01-7.72z"/>
        <path d="M73.29 67.82v6.75h-.02l-4.69-6.75h-.92v7.71h.72v-6.75h.02l4.69 6.75h.92v-7.71h-.72z"/>
        <path d="M87.21 74.11c.17.31.43.56.73.73.32.16.67.25 1.03.24.23 0 .46-.03.67-.11.2-.07.39-.17.55-.3.15-.13.28-.29.37-.47.09-.2.14-.41.14-.63.01-.23-.05-.46-.17-.66-.11-.18-.27-.32-.45-.43-.2-.12-.42-.21-.64-.29-.23-.08-.48-.16-.73-.24s-.49-.17-.73-.27c-.23-.1-.45-.23-.64-.4s-.35-.38-.45-.61c-.12-.29-.18-.6-.17-.92-.01-.61.26-1.2.74-1.57.24-.18.5-.32.79-.4.3-.09.62-.14.93-.14.4 0 .8.07 1.17.22.37.16.69.42.93.75l-.62.45a1.76 1.76 0 0 0-.64-.57c-.27-.13-.57-.2-.86-.19-.22 0-.45.03-.66.09-.2.06-.38.15-.55.27a1.301 1.301 0 0 0-.52 1.09c-.02.32.08.64.29.89.21.21.46.38.73.49.31.13.63.23.96.32.33.09.65.21.96.36.29.15.54.37.73.64.21.34.32.73.29 1.13 0 .32-.06.64-.2.93-.13.26-.31.49-.53.68-.23.19-.49.33-.77.42-.29.09-.59.14-.9.14-.48 0-.96-.09-1.4-.27-.44-.19-.83-.5-1.1-.9l.72-.47z"/>
        <path d="M102.4 67.82v3.4h-4.31v-3.4h-.72v7.71h.72v-3.66h4.31v3.66h.72v-7.71h-.72z"/>
        <path d="M109.59 67.82h.72v7.71h-.72z"/>
        <path d="M117.5 71.22h1.52c.31.01.62-.04.92-.14.21-.07.39-.19.55-.35.12-.13.22-.28.27-.45.09-.28.09-.59 0-.87-.05-.17-.14-.32-.27-.45-.16-.15-.34-.27-.55-.35-.29-.11-.61-.15-.92-.14h-1.52v2.75zm-.72-3.4h2.02c.1 0 .24 0 .41.01.19.01.38.03.57.07.21.04.42.1.62.17.21.08.4.2.57.35a1.85 1.85 0 0 1 .57 1.43c.01.32-.05.63-.19.92-.12.23-.28.42-.48.58-.19.15-.41.26-.64.33-.22.07-.44.12-.66.15l2.24 3.7H121l-2.17-3.65h-1.34v3.66h-.72l.01-7.72z"/>
        <path d="M127.6 67.82v7.71h4.89v-.65h-4.17v-3h3.74v-.65h-3.74v-2.74h4v-.65l-4.72-.02z"/>
    </g>
</svg>